<?xml version="1.0" standalone="no"?>
<!DOCTYPE svg PUBLIC "-//W3C//DTD SVG 20010904//EN"
 "http://www.w3.org/TR/2001/REC-SVG-20010904/DTD/svg10.dtd">
<svg version="1.0" xmlns="http://www.w3.org/2000/svg"
 width="892.000000pt" height="892.000000pt" viewBox="0 0 892.000000 892.000000"
 preserveAspectRatio="xMidYMid meet">

<g transform="translate(0.000000,892.000000) scale(0.100000,-0.100000)"
fill="#000000" stroke="none">
<path d="M3000 7740 c-404 -46 -854 -293 -1169 -642 -102 -113 -136 -179 -128
-248 11 -89 65 -164 144 -197 43 -17 125 -17 169 2 20 8 95 74 172 151 174
174 310 276 477 359 172 86 283 114 490 123 143 7 155 9 194 35 64 42 95 97
99 176 6 104 -36 179 -121 219 -52 24 -212 35 -327 22z"/>
<path d="M5847 7741 c-191 -27 -269 -244 -138 -384 49 -54 84 -64 236 -70 204
-8 326 -39 500 -127 174 -89 295 -181 480 -369 138 -139 170 -157 265 -148
103 9 178 77 200 180 21 104 -21 177 -207 358 -362 352 -765 545 -1178 563
-55 3 -126 1 -158 -3z"/>
<path d="M4250 6909 c-225 -24 -492 -93 -705 -184 -259 -111 -316 -178 -301
-353 23 -257 149 -602 299 -821 69 -100 184 -221 278 -291 88 -65 236 -142
338 -174 l69 -22 -52 -100 c-141 -270 -372 -494 -637 -618 -247 -116 -500
-163 -814 -153 -338 11 -594 86 -814 241 -243 171 -428 465 -491 776 -11 58
-25 119 -31 136 -10 32 -68 93 -109 115 -134 69 -306 -22 -326 -172 -3 -24 1
-114 10 -199 100 -957 481 -1804 1076 -2389 273 -269 644 -507 1033 -661 l107
-42 0 -52 c0 -63 22 -209 45 -296 83 -323 267 -599 531 -798 149 -112 396
-216 579 -243 109 -16 322 -13 427 5 234 42 463 156 649 323 129 116 247 270
326 427 73 146 143 407 143 537 0 100 2 102 108 144 437 171 861 487 1159 862
447 562 722 1333 775 2174 13 208 7 249 -43 318 -76 105 -252 113 -343 14 -14
-14 -46 -76 -72 -137 -50 -118 -63 -142 -155 -301 -108 -184 -298 -395 -458
-504 -467 -320 -1068 -287 -1528 83 -129 104 -292 288 -384 431 -14 22 -33 52
-43 67 l-17 26 53 17 c76 25 180 79 274 141 227 150 418 422 529 756 77 232
110 465 76 528 -38 68 -67 93 -165 140 -273 132 -590 220 -901 250 -120 11
-377 11 -495 -1z m535 -465 c140 -17 309 -58 450 -108 55 -20 101 -36 103 -36
16 0 -32 -171 -84 -293 -83 -200 -226 -362 -386 -442 -113 -55 -200 -75 -339
-75 -250 0 -440 98 -601 310 -82 108 -192 362 -200 464 l-3 39 70 29 c157 66
381 113 595 128 124 8 232 4 395 -16z m2528 -2256 c-164 -536 -431 -967 -801
-1292 -169 -149 -371 -282 -554 -364 l-68 -31 0 655 c0 517 3 654 13 654 6 0
68 -5 137 -10 148 -12 337 1 478 31 282 61 525 188 771 401 24 21 45 38 47 38
1 0 -9 -37 -23 -82z m-5448 -258 c122 -67 383 -146 576 -175 208 -30 507 -29
700 1 l39 7 0 -637 c0 -350 -3 -636 -7 -636 -5 0 -73 33 -153 73 -556 279
-970 712 -1260 1320 -33 69 -60 128 -60 132 0 3 26 -8 58 -26 31 -17 80 -44
107 -59z"/>
<path d="M2819 5567 c-100 -53 -136 -171 -86 -280 20 -43 35 -61 72 -83 198
-115 406 93 291 291 -52 88 -182 122 -277 72z"/>
<path d="M6154 5565 c-105 -53 -142 -182 -81 -290 93 -165 344 -125 385 62 39
176 -140 311 -304 228z"/>
<path d="M2402 4968 c-60 -13 -136 -87 -152 -148 -36 -135 64 -265 205 -265
122 0 209 87 209 209 -1 71 -18 110 -70 155 -56 50 -118 66 -192 49z"/>
<path d="M3185 4971 c-199 -49 -230 -307 -47 -398 57 -28 137 -24 195 10 167
98 127 343 -63 386 -25 6 -47 10 -50 10 -3 -1 -18 -4 -35 -8z"/>
<path d="M5738 4966 c-125 -33 -192 -165 -143 -284 60 -142 258 -171 358 -53
84 100 52 261 -63 317 -60 30 -96 34 -152 20z"/>
<path d="M6515 4969 c-63 -15 -112 -55 -141 -116 -50 -101 -16 -212 83 -270
140 -82 316 19 316 182 0 134 -127 234 -258 204z"/>
</g>
</svg>
